<svg width="88" height="80" viewBox="0 0 88 80" fill="none" xmlns="http://www.w3.org/2000/svg">
<path d="M44.0004 48.3258C57.3452 48.3258 68.1633 37.5077 68.1633 24.1629C68.1633 10.8181 57.3452 0 44.0004 0C30.6555 0 19.8374 10.8181 19.8374 24.1629C19.8374 37.5077 30.6555 48.3258 44.0004 48.3258Z" fill="white"/>
<path d="M23.8574 27.7874C23.918 26.7555 24.339 25.7064 25.1596 25.0775C26.1329 24.3314 27.4566 24.2935 28.6831 24.2871C33.7888 24.2606 38.8945 24.2484 44.0001 24.2505C49.1059 24.2516 54.2115 24.2637 59.3171 24.2871C60.5436 24.2935 61.8673 24.3314 62.8407 25.0775C63.6612 25.7064 64.0822 26.7555 64.1428 27.7874C64.1683 28.6854 64.0311 29.5806 63.738 30.4299C64.7247 27.3265 64.9653 24.0342 64.4404 20.8203C63.9154 17.6065 62.6396 14.5618 60.7166 11.9334C58.7936 9.30506 56.2776 7.16721 53.373 5.69349C50.4684 4.21978 47.2571 3.45175 43.9999 3.45178C40.7426 3.45182 37.5313 4.21992 34.6267 5.6937C31.7222 7.16748 29.2063 9.30538 27.2833 11.9338C25.3604 14.5622 24.0847 17.6069 23.5598 20.8208C23.0349 24.0346 23.2756 27.3269 24.2624 30.4303C23.9692 29.5809 23.832 28.6856 23.8574 27.7874Z" fill="url(#paint0_linear_6001_18698)"/>
<path d="M64.1429 27.7874C64.0823 26.7555 63.6613 25.7065 62.8407 25.0775C61.8673 24.3314 60.5436 24.2935 59.3171 24.2871C54.2115 24.2606 49.1058 24.2485 44.0002 24.2506C38.8944 24.2516 33.7887 24.2638 28.6832 24.2871C27.4567 24.2935 26.133 24.3314 25.1596 25.0775C24.3391 25.7065 23.9181 26.7555 23.8574 27.7874C23.7968 28.8193 24.0578 29.8436 24.3901 30.8225C25.3123 33.5401 26.7895 36.0363 28.7281 38.1527C30.6666 40.2691 33.0241 41.9595 35.6508 43.1165C38.2776 44.2736 41.1163 44.872 43.9867 44.8739C46.8571 44.8757 49.6966 44.281 52.3249 43.1273C54.9481 41.9576 57.3032 40.2619 59.2444 38.1454C61.1855 36.0288 62.6715 33.5364 63.6102 30.8225C63.9426 29.8436 64.2035 28.8194 64.1429 27.7874Z" fill="url(#paint1_radial_6001_18698)"/>
<path d="M49.1585 79.5898H45.9288V77.8109C44.6033 79.1978 42.6931 79.9992 40.3819 79.9992C36.3753 79.9992 32.8008 76.7635 32.8008 71.9251C32.8008 67.1177 36.3753 63.8511 40.3819 63.8511C42.6932 63.8511 44.6033 64.6525 45.9288 66.0394V64.2825H49.1585V79.5898ZM45.8122 71.9251C45.8122 68.7952 43.3742 66.8082 40.9062 66.8082C38.1667 66.8082 36.03 68.7952 36.03 71.9251C36.03 75.0854 38.1667 77.0421 40.9062 77.0421C43.3741 77.0421 45.8122 75.0854 45.8122 71.9251Z" fill="white"/>
<path d="M87.6253 79.5927H84.3955V77.8108C83.0701 79.1976 81.1599 79.9991 78.8487 79.9991C74.8421 79.9991 71.2676 76.7634 71.2676 71.925C71.2676 67.1176 74.8421 63.851 78.8487 63.851C81.1599 63.851 83.0701 64.6524 84.3955 66.0393V56.9811H87.6253V79.5927ZM84.279 71.925C84.279 68.7951 81.8408 66.8081 79.373 66.8081C76.6335 66.8081 74.4968 68.7951 74.4968 71.925C74.4968 75.0853 76.6335 77.042 79.373 77.042C81.8408 77.042 84.279 75.0853 84.279 71.925Z" fill="white"/>
<path d="M68.0364 70.2813V79.5898H64.8066V70.9343C64.8066 68.4144 63.3445 66.7348 61.1354 66.7348C58.3667 66.7348 56.531 68.6012 56.531 72.4898V79.5898H53.3013V64.2825H56.531V66.0811C57.7757 64.5883 59.5799 63.7479 61.8824 63.7479C65.5843 63.748 68.0364 66.4233 68.0364 70.2813Z" fill="white"/>
<path d="M3.60481 56.9811H0.375V79.5897H3.60481V56.9811Z" fill="white"/>
<path d="M16.1963 70.854L12.5258 70.0449C11.157 69.734 10.6588 69.1738 10.6588 68.3026C10.6588 67.2141 11.4992 66.2803 13.3969 66.2803C15.3879 66.2803 16.6633 67.3074 16.9121 68.8002H20.1408C19.8607 65.5115 16.9206 63.6982 13.4903 63.6982C9.78833 63.6982 7.42901 65.7232 7.42901 68.5854C7.42901 70.7632 8.91721 72.1913 11.5926 72.7823L14.9523 73.4666C16.3831 73.7781 17.0368 74.3691 17.0368 75.3022C17.0368 76.5155 15.8541 77.356 13.9877 77.356C11.9653 77.356 10.2958 76.5782 10.0784 74.7426H6.84863C6.86152 74.9236 6.68789 80 13.7076 80C17.5656 80 20.2617 78.2528 20.2617 75.0171C20.2617 72.84 18.6856 71.3829 16.1963 70.854Z" fill="white"/>
<path d="M30.757 76.3599V76.3624C29.5499 76.3701 28.6072 76.3402 27.6699 75.4029C26.7045 74.4375 26.7166 73.5005 26.7166 72.2738V56.9811H23.4868V72.3059C23.4886 74.3013 23.7223 76.0202 25.4003 77.6981C26.9984 79.2963 28.711 79.5976 30.6151 79.5902L31.5662 79.5897V76.3599L30.757 76.3599Z" fill="white"/>
<defs>
<linearGradient id="paint0_linear_6001_18698" x1="44.0001" y1="2.43536" x2="44.0001" y2="25.0793" gradientUnits="userSpaceOnUse">
<stop stop-color="#136342"/>
<stop offset="0.171" stop-color="#176846" stop-opacity="0.9417"/>
<stop offset="0.3948" stop-color="#227653" stop-opacity="0.7758"/>
<stop offset="0.6479" stop-color="#358E68" stop-opacity="0.5026"/>
<stop offset="0.9206" stop-color="#4FAE85" stop-opacity="0.1246"/>
<stop offset="1" stop-color="#57B98E" stop-opacity="0"/>
</linearGradient>
<radialGradient id="paint1_radial_6001_18698" cx="0" cy="0" r="1" gradientUnits="userSpaceOnUse" gradientTransform="translate(28.9363 24.1275) rotate(-179.8) scale(36.9813 24.993)">
<stop stop-color="#57B98E"/>
<stop offset="1" stop-color="#136342"/>
</radialGradient>
</defs>
</svg>
