<svg width="138" height="40" viewBox="0 0 138 40" fill="none" xmlns="http://www.w3.org/2000/svg">
<path d="M20.441 40C31.4867 40 40.441 31.0457 40.441 20C40.441 8.9543 31.4867 0 20.441 0C9.39525 0 0.440918 8.9543 0.440918 20C0.440918 31.0457 9.39525 40 20.441 40Z" fill="white"/>
<path d="M3.76825 23.0001C3.81844 22.146 4.1669 21.2777 4.84609 20.7571C5.65177 20.1395 6.74741 20.1082 7.7626 20.1029C11.9887 20.081 16.2147 20.0709 20.4407 20.0726C24.6668 20.0735 28.8929 20.0836 33.1188 20.1029C34.134 20.1082 35.2296 20.1395 36.0353 20.7571C36.7145 21.2777 37.063 22.146 37.1132 23.0001C37.1342 23.7434 37.0207 24.4844 36.7781 25.1874C37.5948 22.6187 37.794 19.8936 37.3594 17.2334C36.9249 14.5733 35.8689 12.0531 34.2772 9.87756C32.6855 7.70203 30.603 5.9325 28.1988 4.71268C25.7947 3.49286 23.1366 2.85715 20.4405 2.85718C17.7444 2.85721 15.0864 3.49297 12.6822 4.71285C10.2781 5.93272 8.19561 7.70229 6.60397 9.87785C5.01233 12.0534 3.95639 14.5736 3.52191 17.2338C3.08744 19.8939 3.28668 22.619 4.10346 25.1877C3.86078 24.4847 3.74722 23.7436 3.76825 23.0001Z" fill="url(#paint0_linear_6001_18629)"/>
<path d="M37.1134 23.0002C37.0632 22.146 36.7148 21.2777 36.0356 20.7571C35.2299 20.1396 34.1343 20.1082 33.1191 20.103C28.893 20.081 24.667 20.0709 20.441 20.0727C16.2149 20.0735 11.9888 20.0836 7.76285 20.103C6.74768 20.1082 5.65204 20.1396 4.84635 20.7571C4.16716 21.2777 3.8187 22.146 3.76851 23.0002C3.71832 23.8543 3.93433 24.7022 4.20939 25.5124C4.97271 27.7618 6.19546 29.8279 7.80001 31.5797C9.40457 33.3315 11.3559 34.7306 13.5301 35.6883C15.7043 36.646 18.0539 37.1414 20.4298 37.1429C22.8057 37.1445 25.156 36.6522 27.3315 35.6973C29.5027 34.729 31.4521 33.3255 33.0588 31.5736C34.6656 29.8217 35.8955 27.7587 36.6726 25.5124C36.9476 24.7022 37.1636 23.8544 37.1134 23.0002Z" fill="url(#paint1_radial_6001_18629)"/>
<path d="M99.4657 30.9915H96.2673V29.2298C94.9547 30.6033 93.063 31.3969 90.7743 31.3969C86.8065 31.3969 83.2666 28.1926 83.2666 23.4012C83.2666 18.6403 86.8065 15.4054 90.7743 15.4054C93.063 15.4054 94.9547 16.1991 96.2673 17.5725V15.8326H99.4657V30.9915ZM96.1518 23.4012C96.1518 20.3015 93.7374 18.3338 91.2935 18.3338C88.5805 18.3338 86.4645 20.3015 86.4645 23.4012C86.4645 26.5308 88.5805 28.4685 91.2935 28.4685C93.7373 28.4685 96.1518 26.5308 96.1518 23.4012Z" fill="white"/>
<path d="M137.559 30.9945H134.361V29.2299C133.048 30.6033 131.157 31.397 128.868 31.397C124.9 31.397 121.36 28.1927 121.36 23.4012C121.36 18.6404 124.9 15.4054 128.868 15.4054C131.157 15.4054 133.048 16.1991 134.361 17.5725V8.60217H137.559V30.9945ZM134.246 23.4012C134.246 20.3016 131.831 18.3339 129.387 18.3339C126.674 18.3339 124.558 20.3016 124.558 23.4012C124.558 26.5309 126.674 28.4686 129.387 28.4686C131.831 28.4686 134.246 26.5309 134.246 23.4012Z" fill="white"/>
<path d="M118.161 21.7734V30.9916H114.962V22.4201C114.962 19.9246 113.514 18.2613 111.327 18.2613C108.585 18.2613 106.767 20.1095 106.767 23.9605V30.9916H103.568V15.8327H106.767V17.6139C107.999 16.1356 109.786 15.3033 112.066 15.3033C115.732 15.3034 118.161 17.9528 118.161 21.7734Z" fill="white"/>
<path d="M54.3538 8.60217H51.1553V30.9915H54.3538V8.60217Z" fill="white"/>
<path d="M66.8234 22.3405L63.1885 21.5392C61.833 21.2314 61.3396 20.6766 61.3396 19.8139C61.3396 18.7359 62.1719 17.8112 64.0511 17.8112C66.0229 17.8112 67.2859 18.8284 67.5322 20.3067H70.7297C70.4523 17.0499 67.5407 15.2542 64.1436 15.2542C60.4776 15.2542 58.1412 17.2595 58.1412 20.0939C58.1412 22.2506 59.6149 23.6649 62.2644 24.2501L65.5915 24.9278C67.0084 25.2363 67.6557 25.8215 67.6557 26.7456C67.6557 27.9472 66.4845 28.7794 64.6363 28.7794C62.6335 28.7794 60.9802 28.0092 60.7648 26.1914H57.5664C57.5792 26.3706 57.4072 31.3978 64.3589 31.3978C68.1795 31.3978 70.8494 29.6676 70.8494 26.4633C70.8494 24.3072 69.2886 22.8643 66.8234 22.3405Z" fill="white"/>
<path d="M81.2427 27.793V27.7956C80.0473 27.8032 79.1137 27.7736 78.1855 26.8454C77.2295 25.8894 77.2414 24.9614 77.2414 23.7466V8.60217H74.043V23.7784C74.0447 25.7544 74.2762 27.4567 75.9379 29.1183C77.5205 30.701 79.2165 30.9994 81.1021 30.9921L82.044 30.9915V27.7931L81.2427 27.793Z" fill="white"/>
<defs>
<linearGradient id="paint0_linear_6001_18629" x1="20.4407" y1="2.01587" x2="20.4407" y2="20.7586" gradientUnits="userSpaceOnUse">
<stop stop-color="#136342"/>
<stop offset="0.171" stop-color="#176846" stop-opacity="0.9417"/>
<stop offset="0.3948" stop-color="#227653" stop-opacity="0.7758"/>
<stop offset="0.6479" stop-color="#358E68" stop-opacity="0.5026"/>
<stop offset="0.9206" stop-color="#4FAE85" stop-opacity="0.1246"/>
<stop offset="1" stop-color="#57B98E" stop-opacity="0"/>
</linearGradient>
<radialGradient id="paint1_radial_6001_18629" cx="0" cy="0" r="1" gradientUnits="userSpaceOnUse" gradientTransform="translate(7.97237 19.9708) rotate(-179.8) scale(30.61 20.6871)">
<stop stop-color="#57B98E"/>
<stop offset="1" stop-color="#136342"/>
</radialGradient>
</defs>
</svg>
